<svg width="52" height="52" viewBox="0 0 52 52" fill="none" xmlns="http://www.w3.org/2000/svg">
<path d="M0 18C0 8.05888 8.05888 0 18 0H34C43.9411 0 52 8.05888 52 18V34C52 43.9411 43.9411 52 34 52H18C8.05888 52 0 43.9411 0 34V18Z" fill="white"/>
<path d="M26 27L32 36H20L26 27ZM26 30.6L23.74 34H28.26L26 30.6ZM24.94 24.56C24.7926 24.4226 24.6744 24.257 24.5925 24.073C24.5105 23.889 24.4664 23.6904 24.4628 23.489C24.4593 23.2876 24.4963 23.0875 24.5718 22.9008C24.6472 22.714 24.7595 22.5443 24.9019 22.4019C25.0444 22.2594 25.214 22.1472 25.4008 22.0717C25.5876 21.9963 25.7877 21.9592 25.9891 21.9628C26.1905 21.9663 26.3891 22.0104 26.5731 22.0924C26.7571 22.1744 26.9227 22.2926 27.06 22.44C27.325 22.7243 27.4692 23.1004 27.4624 23.489C27.4555 23.8776 27.2981 24.2484 27.0233 24.5232C26.7484 24.798 26.3777 24.9555 25.9891 24.9623C25.6005 24.9692 25.2244 24.8249 24.94 24.56ZM19.281 16.783L20.696 18.198C19.2897 19.6045 18.4996 21.512 18.4996 23.501C18.4996 25.4899 19.2897 27.3975 20.696 28.804L19.281 30.219C18.3987 29.3368 17.6988 28.2895 17.2213 27.1368C16.7438 25.9841 16.498 24.7486 16.498 23.501C16.498 22.2533 16.7438 21.0178 17.2213 19.8651C17.6988 18.7125 18.3987 17.6651 19.281 16.783ZM32.717 16.783C33.5993 17.6651 34.2992 18.7125 34.7767 19.8651C35.2542 21.0178 35.5 22.2533 35.5 23.501C35.5 24.7486 35.2542 25.9841 34.7767 27.1368C34.2992 28.2895 33.5993 29.3368 32.717 30.219L31.302 28.804C32.7084 27.3975 33.4984 25.4899 33.4984 23.501C33.4984 21.512 32.7084 19.6045 31.302 18.198L32.717 16.783ZM22.11 19.611L23.524 21.025C23.199 21.35 22.9411 21.7358 22.7652 22.1605C22.5893 22.5851 22.4988 23.0403 22.4988 23.5C22.4988 23.9596 22.5893 24.4148 22.7652 24.8394C22.9411 25.2641 23.199 25.65 23.524 25.975L22.11 27.389C21.0786 26.3575 20.4992 24.9586 20.4992 23.5C20.4992 22.0413 21.0786 20.6424 22.11 19.611ZM29.888 19.611C30.9194 20.6424 31.4988 22.0413 31.4988 23.5C31.4988 24.9586 30.9194 26.3575 29.888 27.389L28.474 25.975C28.7991 25.65 29.0569 25.2641 29.2328 24.8394C29.4087 24.4148 29.4993 23.9596 29.4993 23.5C29.4993 23.0403 29.4087 22.5851 29.2328 22.1605C29.0569 21.7358 28.7991 21.35 28.474 21.025L29.888 19.611Z" fill="#76A728"/>
</svg>
