<svg width="52" height="52" viewBox="0 0 52 52" fill="none" xmlns="http://www.w3.org/2000/svg">
<path d="M0 18C0 8.05888 8.05888 0 18 0H34C43.9411 0 52 8.05888 52 18V34C52 43.9411 43.9411 52 34 52H18C8.05888 52 0 43.9411 0 34V18Z" fill="white"/>
<path d="M15.7911 18.257L23.364 26L21.9811 27.414L18.6107 23.968C18.1778 24.7185 17.9964 25.5931 18.0941 26.4587C18.1918 27.3243 18.5633 28.1336 19.1521 28.7636C19.7408 29.3935 20.5147 29.8097 21.356 29.9488C22.1973 30.0879 23.06 29.9423 23.8129 29.5341C24.5659 29.126 25.1679 28.4776 25.5274 27.6876C25.8869 26.8976 25.9843 26.0092 25.8048 25.1574C25.6253 24.3056 25.1786 23.537 24.5327 22.9686C23.8868 22.4001 23.0771 22.0628 22.2266 22.008L20.4612 20.203C21.7955 19.8372 23.2132 19.9643 24.4648 20.5621C25.7164 21.1599 26.7216 22.19 27.3035 23.4711C27.8853 24.7521 28.0065 26.202 27.6457 27.5654C27.2849 28.9288 26.4652 30.1184 25.3309 30.9246C24.1967 31.7309 22.8206 32.1022 21.445 31.9731C20.0693 31.8441 18.7823 31.223 17.8105 30.2191C16.8387 29.2153 16.2444 27.8931 16.1323 26.4853C16.0202 25.0775 16.3974 23.6744 17.1975 22.523L15.7999 21.094C14.6335 22.6314 14.0551 24.5506 14.1729 26.4925C14.2907 28.4344 15.0966 30.2659 16.4398 31.6441C17.783 33.0223 19.5714 33.8528 21.4702 33.9802C23.369 34.1075 25.2482 33.5229 26.7559 32.3359C28.2636 31.1488 29.2966 29.4407 29.6614 27.5311C30.0262 25.6216 29.6979 23.6415 28.738 21.9616C27.778 20.2817 26.2522 19.017 24.4461 18.4043C22.64 17.7916 20.6774 17.8729 18.9257 18.633L17.4567 17.132C18.853 16.386 20.4056 15.9976 21.9811 16C27.3828 16 31.7614 20.477 31.7614 26C31.7614 31.523 27.3828 36 21.9811 36C16.5794 36 12.2007 31.523 12.2007 26C12.1992 24.5178 12.5207 23.0538 13.1417 21.7145C13.7628 20.3751 14.6678 19.194 15.7911 18.257V18.257Z" fill="#BFBFBF"/>
</svg>
